<mxfile host="app.diagrams.net" agent="Mozilla/5.0 (Macintosh; Intel Mac OS X 10_15_7) AppleWebKit/537.36 (KHTML, like Gecko) Chrome/131.0.0.0 Safari/537.36" version="26.1.0">
  <diagram name="第 1 页" id="OkHcdpUXPn1q1teVOjKF">
    <mxGraphModel dx="1194" dy="651" grid="1" gridSize="10" guides="1" tooltips="1" connect="1" arrows="1" fold="1" page="1" pageScale="1" pageWidth="827" pageHeight="1169" math="0" shadow="0">
      <root>
        <mxCell id="0" />
        <mxCell id="1" parent="0" />
        <mxCell id="NQwIcO4NpjbpjUUEAGOQ-4" value="" style="ellipse;whiteSpace=wrap;html=1;aspect=fixed;fillColor=#d5e8d4;strokeColor=#82b366;" parent="1" vertex="1">
          <mxGeometry x="80" y="585" width="15" height="15" as="geometry" />
        </mxCell>
        <mxCell id="qAJiwPl70GLXNSQBcnNx-25" value="" style="rounded=0;whiteSpace=wrap;html=1;" parent="1" vertex="1">
          <mxGeometry x="69" y="420" width="621" height="50" as="geometry" />
        </mxCell>
        <mxCell id="qAJiwPl70GLXNSQBcnNx-16" value="" style="rounded=0;whiteSpace=wrap;html=1;" parent="1" vertex="1">
          <mxGeometry x="70" y="110" width="580" height="50" as="geometry" />
        </mxCell>
        <mxCell id="qAJiwPl70GLXNSQBcnNx-2" value="条件" style="text;html=1;align=left;verticalAlign=middle;whiteSpace=wrap;rounded=0;" parent="1" vertex="1">
          <mxGeometry x="70" y="75" width="60" height="30" as="geometry" />
        </mxCell>
        <mxCell id="qAJiwPl70GLXNSQBcnNx-4" value="添加条件" style="rounded=1;whiteSpace=wrap;html=1;" parent="1" vertex="1">
          <mxGeometry x="599" y="80" width="51" height="20" as="geometry" />
        </mxCell>
        <mxCell id="qAJiwPl70GLXNSQBcnNx-5" value="结果" style="text;html=1;align=left;verticalAlign=middle;whiteSpace=wrap;rounded=0;" parent="1" vertex="1">
          <mxGeometry x="70" y="325" width="60" height="30" as="geometry" />
        </mxCell>
        <mxCell id="qAJiwPl70GLXNSQBcnNx-10" value="&lt;div style=&quot;text-align: left;&quot;&gt;&lt;span style=&quot;background-color: initial; text-align: center;&quot;&gt;添加结果&lt;/span&gt;&lt;/div&gt;" style="rounded=1;whiteSpace=wrap;html=1;" parent="1" vertex="1">
          <mxGeometry x="634.5" y="330" width="51" height="20" as="geometry" />
        </mxCell>
        <mxCell id="qAJiwPl70GLXNSQBcnNx-13" value="逻辑运算符：且、或" style="rounded=1;whiteSpace=wrap;html=1;align=left;" parent="1" vertex="1">
          <mxGeometry x="70" y="170" width="380" height="30" as="geometry" />
        </mxCell>
        <mxCell id="qAJiwPl70GLXNSQBcnNx-14" value="字段d的下拉数据" style="rounded=1;whiteSpace=wrap;html=1;align=left;" parent="1" vertex="1">
          <mxGeometry x="80" y="430" width="100" height="30" as="geometry" />
        </mxCell>
        <mxCell id="qAJiwPl70GLXNSQBcnNx-1" value="字段a" style="rounded=1;whiteSpace=wrap;html=1;align=center;" parent="1" vertex="1">
          <mxGeometry x="80" y="120" width="50" height="30" as="geometry" />
        </mxCell>
        <mxCell id="qAJiwPl70GLXNSQBcnNx-3" value="比较运算符：等于、不等于、大于、小于、大于等于、小于等于、包含、不包含" style="rounded=1;whiteSpace=wrap;html=1;align=left;" parent="1" vertex="1">
          <mxGeometry x="140" y="120" width="440" height="30" as="geometry" />
        </mxCell>
        <mxCell id="qAJiwPl70GLXNSQBcnNx-11" value="&lt;div&gt;100&lt;/div&gt;" style="rounded=1;whiteSpace=wrap;html=1;align=center;" parent="1" vertex="1">
          <mxGeometry x="590" y="120" width="50" height="30" as="geometry" />
        </mxCell>
        <mxCell id="qAJiwPl70GLXNSQBcnNx-23" value="比较运算符：等于、不等于、大于、小于、大于等于、小于等于、包含、不包含" style="rounded=1;whiteSpace=wrap;html=1;align=left;" parent="1" vertex="1">
          <mxGeometry x="189" y="430" width="440" height="30" as="geometry" />
        </mxCell>
        <mxCell id="qAJiwPl70GLXNSQBcnNx-24" value="200" style="rounded=1;whiteSpace=wrap;html=1;align=center;" parent="1" vertex="1">
          <mxGeometry x="640" y="430" width="40" height="30" as="geometry" />
        </mxCell>
        <mxCell id="qAJiwPl70GLXNSQBcnNx-28" value="" style="rounded=0;whiteSpace=wrap;html=1;" parent="1" vertex="1">
          <mxGeometry x="69" y="360" width="621" height="50" as="geometry" />
        </mxCell>
        <mxCell id="qAJiwPl70GLXNSQBcnNx-29" value="字段c" style="rounded=1;whiteSpace=wrap;html=1;align=center;" parent="1" vertex="1">
          <mxGeometry x="80" y="370" width="100" height="30" as="geometry" />
        </mxCell>
        <mxCell id="qAJiwPl70GLXNSQBcnNx-30" value="比较运算符：等于、不等于、大于、小于、大于等于、小于等于、包含、不包含" style="rounded=1;whiteSpace=wrap;html=1;align=left;" parent="1" vertex="1">
          <mxGeometry x="189" y="370" width="440" height="30" as="geometry" />
        </mxCell>
        <mxCell id="qAJiwPl70GLXNSQBcnNx-31" value="200" style="rounded=1;whiteSpace=wrap;html=1;align=center;" parent="1" vertex="1">
          <mxGeometry x="639" y="370" width="41" height="30" as="geometry" />
        </mxCell>
        <mxCell id="qAJiwPl70GLXNSQBcnNx-32" value="添加逻辑运算" style="rounded=1;whiteSpace=wrap;html=1;" parent="1" vertex="1">
          <mxGeometry x="660" y="125" width="90" height="20" as="geometry" />
        </mxCell>
        <mxCell id="qAJiwPl70GLXNSQBcnNx-34" value="" style="rounded=0;whiteSpace=wrap;html=1;" parent="1" vertex="1">
          <mxGeometry x="70" y="210" width="580" height="50" as="geometry" />
        </mxCell>
        <mxCell id="qAJiwPl70GLXNSQBcnNx-35" value="字段a" style="rounded=1;whiteSpace=wrap;html=1;align=center;" parent="1" vertex="1">
          <mxGeometry x="80" y="220" width="50" height="30" as="geometry" />
        </mxCell>
        <mxCell id="qAJiwPl70GLXNSQBcnNx-36" value="比较运算符：等于、不等于、大于、小于、大于等于、小于等于、包含、不包含" style="rounded=1;whiteSpace=wrap;html=1;align=left;" parent="1" vertex="1">
          <mxGeometry x="140" y="220" width="440" height="30" as="geometry" />
        </mxCell>
        <mxCell id="qAJiwPl70GLXNSQBcnNx-37" value="&lt;div&gt;100&lt;/div&gt;" style="rounded=1;whiteSpace=wrap;html=1;align=center;" parent="1" vertex="1">
          <mxGeometry x="590" y="220" width="50" height="30" as="geometry" />
        </mxCell>
        <mxCell id="qAJiwPl70GLXNSQBcnNx-38" value="添加逻辑运算" style="rounded=1;whiteSpace=wrap;html=1;" parent="1" vertex="1">
          <mxGeometry x="660" y="225" width="90" height="20" as="geometry" />
        </mxCell>
        <mxCell id="NQwIcO4NpjbpjUUEAGOQ-1" value="校验规则" style="text;html=1;align=center;verticalAlign=middle;resizable=0;points=[];autosize=1;strokeColor=none;fillColor=none;" parent="1" vertex="1">
          <mxGeometry x="65" y="508" width="70" height="30" as="geometry" />
        </mxCell>
        <mxCell id="NQwIcO4NpjbpjUUEAGOQ-2" value="" style="rounded=1;whiteSpace=wrap;html=1;" parent="1" vertex="1">
          <mxGeometry x="80" y="538" width="370" height="42" as="geometry" />
        </mxCell>
        <mxCell id="NQwIcO4NpjbpjUUEAGOQ-3" value="添加" style="rounded=1;whiteSpace=wrap;html=1;" parent="1" vertex="1">
          <mxGeometry x="340" y="513" width="50" height="20" as="geometry" />
        </mxCell>
        <mxCell id="NQwIcO4NpjbpjUUEAGOQ-5" value="且" style="text;html=1;align=center;verticalAlign=middle;resizable=0;points=[];autosize=1;strokeColor=none;fillColor=none;" parent="1" vertex="1">
          <mxGeometry x="90" y="578" width="40" height="30" as="geometry" />
        </mxCell>
        <mxCell id="NQwIcO4NpjbpjUUEAGOQ-8" value="或" style="text;html=1;align=center;verticalAlign=middle;resizable=0;points=[];autosize=1;strokeColor=none;fillColor=none;" parent="1" vertex="1">
          <mxGeometry x="140" y="578" width="40" height="30" as="geometry" />
        </mxCell>
        <mxCell id="NQwIcO4NpjbpjUUEAGOQ-10" value="" style="ellipse;whiteSpace=wrap;html=1;aspect=fixed;" parent="1" vertex="1">
          <mxGeometry x="130" y="585.5" width="15" height="15" as="geometry" />
        </mxCell>
        <mxCell id="NQwIcO4NpjbpjUUEAGOQ-11" value="当前字段" style="text;html=1;align=center;verticalAlign=middle;resizable=0;points=[];autosize=1;strokeColor=none;fillColor=none;" parent="1" vertex="1">
          <mxGeometry x="80" y="544" width="70" height="30" as="geometry" />
        </mxCell>
        <mxCell id="NQwIcO4NpjbpjUUEAGOQ-12" value="请选择" style="rounded=1;whiteSpace=wrap;html=1;" parent="1" vertex="1">
          <mxGeometry x="150" y="544" width="70" height="30" as="geometry" />
        </mxCell>
        <mxCell id="NQwIcO4NpjbpjUUEAGOQ-13" value="请输入" style="rounded=0;whiteSpace=wrap;html=1;" parent="1" vertex="1">
          <mxGeometry x="230" y="544" width="80" height="30" as="geometry" />
        </mxCell>
        <mxCell id="NQwIcO4NpjbpjUUEAGOQ-14" value="" style="rounded=1;whiteSpace=wrap;html=1;" parent="1" vertex="1">
          <mxGeometry x="80" y="608" width="370" height="42" as="geometry" />
        </mxCell>
        <mxCell id="NQwIcO4NpjbpjUUEAGOQ-15" value="当前字段" style="text;html=1;align=center;verticalAlign=middle;resizable=0;points=[];autosize=1;strokeColor=none;fillColor=none;" parent="1" vertex="1">
          <mxGeometry x="80" y="614" width="70" height="30" as="geometry" />
        </mxCell>
        <mxCell id="NQwIcO4NpjbpjUUEAGOQ-16" value="请选择" style="rounded=1;whiteSpace=wrap;html=1;" parent="1" vertex="1">
          <mxGeometry x="150" y="614" width="70" height="30" as="geometry" />
        </mxCell>
        <mxCell id="NQwIcO4NpjbpjUUEAGOQ-17" value="请输入" style="rounded=0;whiteSpace=wrap;html=1;" parent="1" vertex="1">
          <mxGeometry x="230" y="614" width="80" height="30" as="geometry" />
        </mxCell>
        <mxCell id="NQwIcO4NpjbpjUUEAGOQ-18" value="删除" style="rounded=1;whiteSpace=wrap;html=1;" parent="1" vertex="1">
          <mxGeometry x="460" y="549" width="40" height="20" as="geometry" />
        </mxCell>
        <mxCell id="NQwIcO4NpjbpjUUEAGOQ-19" value="删除" style="rounded=1;whiteSpace=wrap;html=1;" parent="1" vertex="1">
          <mxGeometry x="460" y="619" width="40" height="20" as="geometry" />
        </mxCell>
        <mxCell id="NQwIcO4NpjbpjUUEAGOQ-21" value="图标切换：选择/输入" style="rounded=1;whiteSpace=wrap;html=1;" parent="1" vertex="1">
          <mxGeometry x="320" y="549" width="120" height="20" as="geometry" />
        </mxCell>
        <mxCell id="NQwIcO4NpjbpjUUEAGOQ-24" value="图标切换：选择/输入" style="rounded=1;whiteSpace=wrap;html=1;" parent="1" vertex="1">
          <mxGeometry x="319.5" y="619" width="120" height="20" as="geometry" />
        </mxCell>
        <mxCell id="NQwIcO4NpjbpjUUEAGOQ-25" style="edgeStyle=orthogonalEdgeStyle;rounded=0;orthogonalLoop=1;jettySize=auto;html=1;exitX=0.5;exitY=1;exitDx=0;exitDy=0;entryX=0.667;entryY=0.9;entryDx=0;entryDy=0;entryPerimeter=0;" parent="1" source="NQwIcO4NpjbpjUUEAGOQ-24" target="NQwIcO4NpjbpjUUEAGOQ-24" edge="1">
          <mxGeometry relative="1" as="geometry" />
        </mxCell>
        <mxCell id="UNLXwDMoNl5xc4xGQnmb-1" value="字段a" style="rounded=1;whiteSpace=wrap;html=1;" vertex="1" parent="1">
          <mxGeometry x="78.75" y="910" width="72.5" height="50" as="geometry" />
        </mxCell>
        <mxCell id="UNLXwDMoNl5xc4xGQnmb-4" value="当前字段" style="rounded=1;whiteSpace=wrap;html=1;" vertex="1" parent="1">
          <mxGeometry x="80" y="1109" width="70" height="44" as="geometry" />
        </mxCell>
        <mxCell id="UNLXwDMoNl5xc4xGQnmb-6" value="联动属性：value、visible、disabled、options" style="rounded=1;whiteSpace=wrap;html=1;align=left;" vertex="1" parent="1">
          <mxGeometry x="170" y="1109" width="180" height="105" as="geometry" />
        </mxCell>
        <mxCell id="UNLXwDMoNl5xc4xGQnmb-7" value="字段b" style="rounded=1;whiteSpace=wrap;html=1;" vertex="1" parent="1">
          <mxGeometry x="78.75" y="970" width="72.5" height="50" as="geometry" />
        </mxCell>
        <mxCell id="UNLXwDMoNl5xc4xGQnmb-9" value="当前字段" style="rounded=1;whiteSpace=wrap;html=1;" vertex="1" parent="1">
          <mxGeometry x="80" y="1169" width="70" height="44" as="geometry" />
        </mxCell>
        <mxCell id="UNLXwDMoNl5xc4xGQnmb-11" value="监听对象" style="text;html=1;align=center;verticalAlign=middle;resizable=0;points=[];autosize=1;strokeColor=none;fillColor=none;" vertex="1" parent="1">
          <mxGeometry x="15" y="878" width="70" height="30" as="geometry" />
        </mxCell>
        <mxCell id="UNLXwDMoNl5xc4xGQnmb-13" value="触发结果" style="text;html=1;align=center;verticalAlign=middle;resizable=0;points=[];autosize=1;strokeColor=none;fillColor=none;" vertex="1" parent="1">
          <mxGeometry x="14" y="1057" width="70" height="30" as="geometry" />
        </mxCell>
        <mxCell id="UNLXwDMoNl5xc4xGQnmb-17" value="比较运算：等于、不等于、大于、小于、大于等于、小于等于、包含、不包含、正则匹配、正则不匹配" style="rounded=1;whiteSpace=wrap;html=1;align=left;" vertex="1" parent="1">
          <mxGeometry x="170" y="910" width="360" height="110" as="geometry" />
        </mxCell>
        <mxCell id="UNLXwDMoNl5xc4xGQnmb-18" value="选择输入类：空值、输入、布尔、数字、时间" style="rounded=1;whiteSpace=wrap;html=1;" vertex="1" parent="1">
          <mxGeometry x="550" y="910" width="170" height="110" as="geometry" />
        </mxCell>
        <mxCell id="UNLXwDMoNl5xc4xGQnmb-19" value="赋值运算：等于、包含、不包含" style="rounded=1;whiteSpace=wrap;html=1;align=left;" vertex="1" parent="1">
          <mxGeometry x="370" y="1109" width="160" height="104" as="geometry" />
        </mxCell>
        <mxCell id="UNLXwDMoNl5xc4xGQnmb-20" value="选择输入类：空值、输入、布尔、数字、时间" style="rounded=1;whiteSpace=wrap;html=1;" vertex="1" parent="1">
          <mxGeometry x="550" y="1109" width="170" height="104" as="geometry" />
        </mxCell>
        <mxCell id="UNLXwDMoNl5xc4xGQnmb-21" value="添加" style="text;html=1;align=center;verticalAlign=middle;resizable=0;points=[];autosize=1;strokeColor=none;fillColor=none;" vertex="1" parent="1">
          <mxGeometry x="665" y="868" width="50" height="30" as="geometry" />
        </mxCell>
        <mxCell id="UNLXwDMoNl5xc4xGQnmb-22" value="添加" style="text;html=1;align=center;verticalAlign=middle;resizable=0;points=[];autosize=1;strokeColor=none;fillColor=none;" vertex="1" parent="1">
          <mxGeometry x="610" y="1059" width="50" height="30" as="geometry" />
        </mxCell>
        <mxCell id="UNLXwDMoNl5xc4xGQnmb-23" value="且、或" style="text;html=1;align=center;verticalAlign=middle;resizable=0;points=[];autosize=1;strokeColor=none;fillColor=none;" vertex="1" parent="1">
          <mxGeometry x="20" y="958" width="60" height="30" as="geometry" />
        </mxCell>
        <mxCell id="UNLXwDMoNl5xc4xGQnmb-25" value="&lt;span style=&quot;text-align: left;&quot;&gt;监听属性：value、不能选择当前字段&lt;/span&gt;" style="text;html=1;align=center;verticalAlign=middle;whiteSpace=wrap;rounded=0;" vertex="1" parent="1">
          <mxGeometry x="70" y="838" width="110" height="30" as="geometry" />
        </mxCell>
        <mxCell id="UNLXwDMoNl5xc4xGQnmb-26" value="添加编码" style="text;html=1;align=center;verticalAlign=middle;resizable=0;points=[];autosize=1;strokeColor=none;fillColor=none;" vertex="1" parent="1">
          <mxGeometry x="655" y="1058" width="70" height="30" as="geometry" />
        </mxCell>
        <mxCell id="UNLXwDMoNl5xc4xGQnmb-27" value="只能当前字段" style="text;html=1;align=center;verticalAlign=middle;resizable=0;points=[];autosize=1;strokeColor=none;fillColor=none;" vertex="1" parent="1">
          <mxGeometry x="60" y="1078" width="100" height="30" as="geometry" />
        </mxCell>
      </root>
    </mxGraphModel>
  </diagram>
</mxfile>
